CEND
BEGIN BULK
GRID           1            50.0    20.0     0.5
GRID           2            48.0    20.0     0.5
GRID           3            46.0    20.0     0.5
GRID           4            44.0    20.0     0.5
GRID           5            42.0    20.0     0.5
GRID           6            40.0    20.0     0.5
GRID           7            38.0    20.0     0.5
GRID           8            36.0    20.0     0.5
GRID           9            34.0    20.0     0.5
GRID          10            32.0    20.0     0.5
GRID          11            30.0    20.0     0.5
GRID          12            28.0    20.0     0.5
GRID          13            26.0    20.0     0.5
GRID          14            24.0    20.0     0.5
GRID          15            22.0    20.0     0.5
GRID          16            20.0    20.0     0.5
GRID          17            18.0    20.0     0.5
GRID          18            16.0    20.0     0.5
GRID          19            14.0    20.0     0.5
GRID          20            12.0    20.0     0.5
GRID          21            10.0    20.0     0.5
GRID          22             8.0    20.0     0.5
GRID          23             6.0    20.0     0.5
GRID          24             4.0    20.0     0.5
GRID          25             2.0    20.0     0.5
GRID          26        7.105-15    20.0     0.5
GRID          27            -2.0    20.0     0.5
GRID          28            -4.0    20.0     0.5
GRID          29            -6.0    20.0     0.5
GRID          30            -8.0    20.0     0.5
GRID          31           -10.0    20.0     0.5
GRID          32           -12.0    20.0     0.5
GRID          33           -14.0    20.0     0.5
GRID          34           -16.0    20.0     0.5
GRID          35           -18.0    20.0     0.5
GRID          36           -20.0    20.0     0.5
GRID          37           -22.0    20.0     0.5
GRID          38           -24.0    20.0     0.5
GRID          39           -26.0    20.0     0.5
GRID          40           -28.0    20.0     0.5
GRID          41           -30.0    20.0     0.5
GRID          42           -32.0    20.0     0.5
GRID          43           -34.0    20.0     0.5
GRID          44           -36.0    20.0     0.5
GRID          45           -38.0    20.0     0.5
GRID          46           -40.0    20.0     0.5
GRID          47           -42.0    20.0     0.5
GRID          48           -44.0    20.0     0.5
GRID          49           -46.0    20.0     0.5
GRID          50           -48.0    20.0     0.5
GRID          51           -50.0    20.0     0.5
GRID          52           -50.0    18.0     0.5
GRID          53           -50.0    16.0     0.5
GRID          54           -50.0    14.0     0.5
GRID          55           -50.0    12.0     0.5
GRID          56           -50.0    10.0     0.5
GRID          57           -50.0     8.0     0.5
GRID          58           -50.0     6.0     0.5
GRID          59           -50.0     4.0     0.5
GRID          60           -50.0     2.0     0.5
GRID          61           -50.0     0.0     0.5
GRID          62           -50.0    -2.0     0.5
GRID          63           -50.0    -4.0     0.5
GRID          64           -50.0    -6.0     0.5
GRID          65           -50.0    -8.0     0.5
GRID          66           -50.0   -10.0     0.5
GRID          67           -50.0   -12.0     0.5
GRID          68           -50.0   -14.0     0.5
GRID          69           -50.0   -16.0     0.5
GRID          70           -50.0   -18.0     0.5
GRID          71           -50.0   -20.0     0.5
GRID          72           -48.0   -20.0     0.5
GRID          73           -46.0   -20.0     0.5
GRID          74           -44.0   -20.0     0.5
GRID          75           -42.0   -20.0     0.5
GRID          76           -40.0   -20.0     0.5
GRID          77           -38.0   -20.0     0.5
GRID          78           -36.0   -20.0     0.5
GRID          79           -34.0   -20.0     0.5
GRID          80           -32.0   -20.0     0.5
GRID          81           -30.0   -20.0     0.5
GRID          82           -28.0   -20.0     0.5
GRID          83           -26.0   -20.0     0.5
GRID          84           -24.0   -20.0     0.5
GRID          85           -22.0   -20.0     0.5
GRID          86           -20.0   -20.0     0.5
GRID          87           -18.0   -20.0     0.5
GRID          88           -16.0   -20.0     0.5
GRID          89           -14.0   -20.0     0.5
GRID          90           -12.0   -20.0     0.5
GRID          91           -10.0   -20.0     0.5
GRID          92            -8.0   -20.0     0.5
GRID          93            -6.0   -20.0     0.5
GRID          94            -4.0   -20.0     0.5
GRID          95            -2.0   -20.0     0.5
GRID          96        7.105-15   -20.0     0.5
GRID          97             2.0   -20.0     0.5
GRID          98             4.0   -20.0     0.5
GRID          99             6.0   -20.0     0.5
GRID         100             8.0   -20.0     0.5
GRID         101            10.0   -20.0     0.5
GRID         102            12.0   -20.0     0.5
GRID         103            14.0   -20.0     0.5
GRID         104            16.0   -20.0     0.5
GRID         105            18.0   -20.0     0.5
GRID         106            20.0   -20.0     0.5
GRID         107            22.0   -20.0     0.5
GRID         108            24.0   -20.0     0.5
GRID         109            26.0   -20.0     0.5
GRID         110            28.0   -20.0     0.5
GRID         111            30.0   -20.0     0.5
GRID         112            32.0   -20.0     0.5
GRID         113            34.0   -20.0     0.5
GRID         114            36.0   -20.0     0.5
GRID         115            38.0   -20.0     0.5
GRID         116            40.0   -20.0     0.5
GRID         117            42.0   -20.0     0.5
GRID         118            44.0   -20.0     0.5
GRID         119            46.0   -20.0     0.5
GRID         120            48.0   -20.0     0.5
GRID         121            50.0   -20.0     0.5
GRID         122            50.0   -18.0     0.5
GRID         123            50.0   -16.0     0.5
GRID         124            50.0   -14.0     0.5
GRID         125            50.0   -12.0     0.5
GRID         126            50.0   -10.0     0.5
GRID         127            50.0    -8.0     0.5
GRID         128            50.0    -6.0     0.5
GRID         129            50.0    -4.0     0.5
GRID         130            50.0    -2.0     0.5
GRID         131            50.0     0.0     0.5
GRID         132            50.0     2.0     0.5
GRID         133            50.0     4.0     0.5
GRID         134            50.0     6.0     0.5
GRID         135            50.0     8.0     0.5
GRID         136            50.0    10.0     0.5
GRID         137            50.0    12.0     0.5
GRID         138            50.0    14.0     0.5
GRID         139            50.0    16.0     0.5
GRID         140            50.0    18.0     0.5
GRID         141           -12.5   -11.0     0.5
GRID         142           -12.5-9.00126     0.5
GRID         143           -12.5-7.00253     0.5
GRID         144           -12.5-5.00379     0.5
GRID         145           -12.5-3.00506     0.5
GRID         146           -12.5-1.00632     0.5
GRID         147           -12.5.9924159     0.5
GRID         148           -12.52.991152     0.5
GRID         149           -12.54.989888     0.5
GRID         150           -12.56.988624     0.5
GRID         151           -12.5 8.98736     0.5
GRID         152        -12.3042 10.9597     0.5
GRID         153        -10.917212.32181     0.5
GRID         154        -8.94136    12.5     0.5
GRID         155        -6.94263    12.5     0.5
GRID         156        -4.94389    12.5     0.5
GRID         157        -2.94516    12.5     0.5
GRID         158        -0.94642    12.5     0.5
GRID         159        1.052316    12.5     0.5
GRID         160        3.051052    12.5     0.5
GRID         161        5.049787    12.5     0.5
GRID         162        7.048523    12.5     0.5
GRID         163        9.047259    12.5     0.5
GRID         164        11.0241112.32689     0.5
GRID         165         12.418310.97196     0.5
GRID         166        12.619179.000632     0.5
GRID         167        12.619177.001896     0.5
GRID         168        12.61917 5.00316     0.5
GRID         169        12.619173.004424     0.5
GRID         170        12.619171.005687     0.5
GRID         171        12.61917-.993049     0.5
GRID         172        12.61917-2.99178     0.5
GRID         173        12.61917-4.99052     0.5
GRID         174        12.61917-6.98926     0.5
GRID         175        12.61917-8.98799     0.5
GRID         176        12.61917-10.9867     0.5
GRID         177        11.86979-12.7831     0.5
GRID         178        10.05991   -13.5     0.5
GRID         179        8.061174   -13.5     0.5
GRID         180        6.062436   -13.5     0.5
GRID         181        4.063698   -13.5     0.5
GRID         182        2.064961   -13.5     0.5
GRID         183        6.6223-2   -13.5     0.5
GRID         184        -1.93251   -13.5     0.5
GRID         185        -3.93125   -13.5     0.5
GRID         186        -5.92999   -13.5     0.5
GRID         187        -7.92873   -13.5     0.5
GRID         188        -9.92746   -13.5     0.5
GRID         189        -11.7407-12.7919     0.5
GRID         190        37.41937   -11.0     0.5
GRID         191        37.02966-12.9324     0.5
GRID         192         35.9236-14.5637     0.5
GRID         193         34.2733-15.6406     0.5
GRID         194        32.33529-15.9959     0.5
GRID         195        30.41074-15.5747     0.5
GRID         196        28.79865-14.4425     0.5
GRID         197        27.74945-12.7752     0.5
GRID         198        27.41937-10.8318     0.5
GRID         199        27.41937-8.84785     0.5
GRID         200        27.41937-6.86387     0.5
GRID         201        27.41937-4.87988     0.5
GRID         202        27.41937 -2.8959     0.5
GRID         203        27.41937-.911916     0.5
GRID         204        27.419371.072069     0.5
GRID         205        27.419373.056054     0.5
GRID         206        27.419375.040038     0.5
GRID         207        27.419377.024023     0.5
GRID         208        27.419379.008008     0.5
GRID         209        27.5214610.98496     0.5
GRID         210        28.2828212.80184     0.5
GRID         211        29.6872814.18336     0.5
GRID         212         31.516714.91479     0.5
GRID         213        33.4869114.88234     0.5
GRID         214        35.2917614.09082     0.5
GRID         215        36.6507212.66298     0.5
GRID         216        37.35092 10.8202     0.5
GRID         217        37.419378.839847     0.5
GRID         218        37.419376.855863     0.5
GRID         219        37.419374.871878     0.5
GRID         220        37.419372.887893     0.5
GRID         221        37.41937.9039084     0.5
GRID         222        37.41937-1.08008     0.5
GRID         223        37.41937-3.06406     0.5
GRID         224        37.41937-5.04805     0.5
GRID         225        37.41937-7.03203     0.5
GRID         226        37.41937-9.01602     0.5
GRID         227           -42.0    10.0     0.5
GRID         228        -41.617711.91277     0.5
GRID         229        -40.533413.53341     0.5
GRID         230        -38.9119 14.6159     0.5
GRID         231           -37.014.99594     0.5
GRID         232        -35.0881 14.6159     0.5
GRID         233        -33.466613.53341     0.5
GRID         234        -32.382311.91277     0.5
GRID         235           -32.0    10.0     0.5
GRID         236        -32.3823 8.08723     0.5
GRID         237        -33.46666.466588     0.5
GRID         238        -35.08815.384105     0.5
GRID         239           -37.05.004055     0.5
GRID         240        -38.91195.384105     0.5
GRID         241        -40.53346.466587     0.5
GRID         242        -41.61778.087228     0.5
GRID         243           -42.0   -11.0     0.5
GRID         244        -41.6177-9.08723     0.5
GRID         245        -40.5334-7.46659     0.5
GRID         246        -38.9119 -6.3841     0.5
GRID         247           -37.0-6.00406     0.5
GRID         248        -35.0881 -6.3841     0.5
GRID         249        -33.4666-7.46659     0.5
GRID         250        -32.3823-9.08723     0.5
GRID         251           -32.0   -11.0     0.5
GRID         252        -32.3823-12.9128     0.5
GRID         253        -33.4666-14.5334     0.5
GRID         254        -35.0881-15.6159     0.5
GRID         255           -37.0-15.9959     0.5
GRID         256        -38.9119-15.6159     0.5
GRID         257        -40.5334-14.5334     0.5
GRID         258        -41.6177-12.9128     0.5
GRID         259        -48.0205-17.9939     0.5
GRID         260        -46.0254-18.0258     0.5
GRID         261        -47.9748-15.9951     0.5
GRID         262        -43.9948-18.0921     0.5
GRID         263         -45.905-16.0796     0.5
GRID         264        -47.9032-14.0185     0.5
GRID         265        -43.7539-16.2195     0.5
GRID         266        -41.8377-17.2213     0.5
GRID         267           -47.9 -12.045     0.5
GRID         268        -45.7297-14.1708     0.5
GRID         269        -43.3467-14.5123     0.5
GRID         270        -47.9048-10.0451     0.5
GRID         271        -45.7869-12.2265     0.5
GRID         272        -39.8029-17.6806     0.5
GRID         273        -43.6749 -12.543     0.5
GRID         274        -47.8586-8.03736     0.5
GRID         275        -45.8389-10.2103     0.5
GRID         276        -37.9317-17.9955     0.5
GRID         277        -43.8519-10.5166     0.5
GRID         278        -45.7178-8.18363     0.5
GRID         279         -36.139-18.0056     0.5
GRID         280         -47.817-6.04143     0.5
GRID         281        -43.5982-8.51235     0.5
GRID         282        -34.3439-17.7171     0.5
GRID         283         -45.584-6.18676     0.5
GRID         284        -47.8493-4.05959     0.5
GRID         285        -47.9277-2.10809     0.5
GRID         286        -43.2268  -6.561     0.5
GRID         287        -32.4735-17.4223     0.5
GRID         288        -45.6633-4.17943     0.5
GRID         289        -30.4093-17.6861     0.5
GRID         290        -48.0226-.201018     0.5
GRID         291        -45.8288-2.20182     0.5
GRID         292        -43.4559-4.47348     0.5
GRID         293        -30.7176-15.5627     0.5
GRID         294        -48.1408  1.6232     0.5
GRID         295        -41.3645-4.75814     0.5
GRID         296        -28.2042-17.9072     0.5
GRID         297        -46.0037-.279284     0.5
GRID         298        -43.7515-2.34138     0.5
GRID         299        -46.22581.518671     0.5
GRID         300        -41.7264-2.44126     0.5
GRID         301        -43.9934-.276442     0.5
GRID         302        -26.0844-17.9816     0.5
GRID         303        -28.3002-15.9075     0.5
GRID         304        -39.4438 -4.4095     0.5
GRID         305        -30.3822-13.6712     0.5
GRID         306        -47.35163.206679     0.5
GRID         307        -44.34231.688338     0.5
GRID         308        -47.58814.852962     0.5
GRID         309         -30.027-11.9143     0.5
GRID         310        -39.7708-2.31721     0.5
GRID         311        -26.1131-15.9921     0.5
GRID         312        -42.0098-.262291     0.5
GRID         313           -24.0   -18.0     0.5
GRID         314        -28.1811-13.9624     0.5
GRID         315        -44.9192 3.52568     0.5
GRID         316        -37.5478-4.13794     0.5
GRID         317        -47.87816.516424     0.5
GRID         318        -42.34761.810794     0.5
GRID         319        -30.0208-10.1796     0.5
GRID         320        -45.27335.270183     0.5
GRID         321        -40.0467-.207992     0.5
GRID         322        -26.0731-14.0048     0.5
GRID         323           -24.0   -16.0     0.5
GRID         324           -22.0   -18.0     0.5
GRID         325         -28.023-12.0194     0.5
GRID         326        -37.8221-2.15861     0.5
GRID         327         -47.9558.361975     0.5
GRID         328        -42.71363.873967     0.5
GRID         329        -35.7797-4.11766     0.5
GRID         330        -30.3746-8.42167     0.5
GRID         331        -45.73566.888861     0.5
GRID         332        -32.4416-4.76128     0.5
GRID         333        -40.37011.862157     0.5
GRID         334        -38.0513-.172385     0.5
GRID         335        -26.0183-12.0087     0.5
GRID         336           -20.0   -18.0     0.5
GRID         337        -28.0198 -10.054     0.5
GRID         338           -22.0   -16.0     0.5
GRID         339           -24.0   -14.0     0.5
GRID         340        -47.923310.29522     0.5
GRID         341        -43.00085.853388     0.5
GRID         342        -30.7192 -6.5638     0.5
GRID         343        -35.8868-2.10613     0.5
GRID         344        -45.90768.579412     0.5
GRID         345         -40.7134.032576     0.5
GRID         346        -34.1328-4.36383     0.5
GRID         347        -43.77387.913934     0.5
GRID         348        -17.9763-17.9876     0.5
GRID         349           -24.0   -12.0     0.5
GRID         350         -28.179-8.11239     0.5
GRID         351        -26.0177-10.0039     0.5
GRID         352           -22.0   -14.0     0.5
GRID         353           -20.0   -16.0     0.5
GRID         354        -36.0426-0.15646     0.5
GRID         355        -38.33461.747418     0.5
GRID         356        -45.842910.40291     0.5
GRID         357        -47.860112.25498     0.5
GRID         358        -30.4277-4.49685     0.5
GRID         359         -33.977-2.21495     0.5
GRID         360        -38.64783.625048     0.5
GRID         361        -36.28291.694645     0.5
GRID         362           -24.0   -10.0     0.5
GRID         363           -20.0   -14.0     0.5
GRID         364           -22.0   -12.0     0.5
GRID         365        -34.0348-.155188     0.5
GRID         366        -15.9532-17.9217     0.5
GRID         367        -17.9718 -15.983     0.5
GRID         368        -28.3058-6.18547     0.5
GRID         369        -26.0748-8.00794     0.5
GRID         370        -43.854610.16016     0.5
GRID         371        -36.58143.432456     0.5
GRID         372        -32.0895 -2.3718     0.5
GRID         373        -45.734812.41029     0.5
GRID         374        -47.826314.20676     0.5
GRID         375        -34.23031.813699     0.5
GRID         376        -15.9355-15.8692     0.5
GRID         377        -32.0666-.166407     0.5
GRID         378         -28.223 -4.1991     0.5
GRID         379           -24.0    -8.0     0.5
GRID         380           -20.0   -12.0     0.5
GRID         381        -17.9898-13.9834     0.5
GRID         382           -22.0   -10.0     0.5
GRID         383        -26.1204-6.02425     0.5
GRID         384        -30.1473 -2.3028     0.5
GRID         385        -13.9362-17.8153     0.5
GRID         386        -43.716712.29858     0.5
GRID         387        -47.912316.13945     0.5
GRID         388        -34.5496 3.69127     0.5
GRID         389        -45.5836 14.4382     0.5
GRID         390        -32.24221.967666     0.5
GRID         391           -20.0   -10.0     0.5
GRID         392           -24.0    -6.0     0.5
GRID         393        -28.1052-2.15072     0.5
GRID         394        -15.9674-13.8436     0.5
GRID         395        -30.0936-.139101     0.5
GRID         396        -26.1013-4.03456     0.5
GRID         397           -22.0    -8.0     0.5
GRID         398         -18.031-11.9829     0.5
GRID         399        -47.987318.07192     0.5
GRID         400          -11.95 -17.737     0.5
GRID         401         -13.884-15.6326     0.5
GRID         402        -45.828716.28388     0.5
GRID         403        -32.59264.120418     0.5
GRID         404        -30.22021.992476     0.5
GRID         405        -43.258114.55185     0.5
GRID         406           -20.0    -8.0     0.5
GRID         407        -28.0883-7.645-2     0.5
GRID         408        -26.0589-2.02887     0.5
GRID         409           -22.0    -6.0     0.5
GRID         410          -18.06-9.97813     0.5
GRID         411        -16.0815 -11.832     0.5
GRID         412           -24.0    -4.0     0.5
GRID         413        -9.97273-17.7859     0.5
GRID         414        -45.975718.14543     0.5
GRID         415        -13.9056-13.5421     0.5
GRID         416        -11.9103-15.3988     0.5
GRID         417        -30.49814.081555     0.5
GRID         418        -43.9209 17.2944     0.5
GRID         419        -28.17271.988412     0.5
GRID         420           -20.0    -6.0     0.5
GRID         421           -22.0    -4.0     0.5
GRID         422        -24.0031-1.99894     0.5
GRID         423        -16.1462-9.80677     0.5
GRID         424        -18.0702-7.97455     0.5
GRID         425        -26.0522  -1.1-2     0.5
GRID         426        -7.97506-17.8252     0.5
GRID         427        -14.2139-11.5205     0.5
GRID         428        -9.94195-15.5897     0.5
GRID         429        -41.436815.47605     0.5
GRID         430         -30.7336.058768     0.5
GRID         431        -28.31494.006845     0.5
GRID         432           -22.0    -2.0     0.5
GRID         433        -26.0872 2.00055     0.5
GRID         434           -20.0    -4.0     0.5
GRID         435        -24.02013.1263-3     0.5
GRID         436        -16.1612-7.78928     0.5
GRID         437        -18.0738 -5.9746     0.5
GRID         438         -5.9752-17.8331     0.5
GRID         439        -14.3188-9.47259     0.5
GRID         440        -41.923917.69251     0.5
GRID         441          -7.944-15.6602     0.5
GRID         442        -39.657316.20685     0.5
GRID         443        -28.38125.988393     0.5
GRID         444         -30.3537.988293     0.5
GRID         445           -20.0    -2.0     0.5
GRID         446        -18.0778-3.97863     0.5
GRID         447        -24.03972.002822     0.5
GRID         448           -22.02.984-13     0.5
GRID         449        -26.1425  3.9987     0.5
GRID         450        -16.1643-5.79103     0.5
GRID         451        -3.97543-17.8336     0.5
GRID         452         -14.329-7.45326     0.5
GRID         453        -39.981718.07089     0.5
GRID         454        -5.94922-15.6662     0.5
GRID         455        -37.929616.60872     0.5
GRID         456         -28.2347.956747     0.5
GRID         457        -36.249316.64322     0.5
GRID         458        -30.10539.974479     0.5
GRID         459           -22.0     2.0     0.5
GRID         460           -20.02.984-13     0.5
GRID         461        -26.16135.983908     0.5
GRID         462        -16.1679-3.81488     0.5
GRID         463        -24.05964.001169     0.5
GRID         464        -18.0867-1.98655     0.5
GRID         465        -38.033918.29236     0.5
GRID         466         -1.9773-17.8336     0.5
GRID         467        -14.3298-5.45757     0.5
GRID         468        -3.95178-15.6668     0.5
GRID         469        -34.616116.32521     0.5
GRID         470        -36.085318.31585     0.5
GRID         471        -28.09419.956943     0.5
GRID         472        -30.105211.94106     0.5
GRID         473        -18.09915.1435-3     0.5
GRID         474        -26.1091 7.96893     0.5
GRID         475        -16.1828-1.87187     0.5
GRID         476        -24.06425.996231     0.5
GRID         477           -22.0     4.0     0.5
GRID         478           -20.0     2.0     0.5
GRID         479        -31.632113.90292     0.5
GRID         480        2.0256-2-17.8337     0.5
GRID         481        -14.3304-3.49033     0.5
GRID         482        -1.95466-15.6668     0.5
GRID         483         -33.115 15.8236     0.5
GRID         484        -34.133518.15505     0.5
GRID         485         -31.51515.82756     0.5
GRID         486        -28.035811.95692     0.5
GRID         487        -29.850813.91756     0.5
GRID         488           -22.0     6.0     0.5
GRID         489           -20.0     4.0     0.5
GRID         490        -18.0996 1.99786     0.5
GRID         491        -24.04617.992268     0.5
GRID         492        -26.04979.970223     0.5
GRID         493        -16.21715.0639-2     0.5
GRID         494        2.012465-17.8342     0.5
GRID         495        -14.3344-1.58264     0.5
GRID         496        4.2311-2-15.6666     0.5
GRID         497         -32.10717.83873     0.5
GRID         498        -29.796615.97304     0.5
GRID         499        -27.939713.96568     0.5
GRID         500           -20.0     6.0     0.5
GRID         501        -24.02319.992946     0.5
GRID         502           -22.0     8.0     0.5
GRID         503        -16.21771.969881     0.5
GRID         504        -26.0151 11.9761     0.5
GRID         505        -18.08733.989875     0.5
GRID         506        3.994015-17.8355     0.5
GRID         507        -14.4076.1729221     0.5
GRID         508        2.034013-15.6662     0.5
GRID         509         -14.4081.849834     0.5
GRID         510        -30.001817.98905     0.5
GRID         511        -27.917115.99006     0.5
GRID         512        -18.07635.983707     0.5
GRID         513         -24.00711.99474     0.5
GRID         514        -16.18353.892794     0.5
GRID         515           -22.0    10.0     0.5
GRID         516           -20.0     8.0     0.5
GRID         517        -25.981413.98496     0.5
GRID         518        5.947512-17.8388     0.5
GRID         519        4.015115-15.6654     0.5
GRID         520        -14.33493.602863     0.5
GRID         521        -27.982818.00208     0.5
GRID         522        -16.16675.843655     0.5
GRID         523        -23.994913.99695     0.5
GRID         524           -22.0    12.0     0.5
GRID         525        -18.06497.983197     0.5
GRID         526           -20.0    10.0     0.5
GRID         527         -25.97315.99658     0.5
GRID         528        7.850259-17.8527     0.5
GRID         529        5.969086-15.6642     0.5
GRID         530        -14.33035.517059     0.5
GRID         531        9.663533-17.9109     0.5
GRID         532           -22.0    14.0     0.5
GRID         533        -23.9913 15.9996     0.5
GRID         534        -16.15447.836611     0.5
GRID         535        -18.0363 9.99061     0.5
GRID         536           -20.0    12.0     0.5
GRID         537        -25.990918.00156     0.5
GRID         538        7.874493-15.6659     0.5
GRID         539        -14.32357.500766     0.5
GRID         540        9.675225-15.7483     0.5
GRID         541        11.32593-17.9752     0.5
GRID         542        -23.995618.00075     0.5
GRID         543        -16.10639.868588     0.5
GRID         544           -22.0    16.0     0.5
GRID         545           -20.0    14.0     0.5
GRID         546        -17.972511.99643     0.5
GRID         547        12.89844-18.1031     0.5
GRID         548        -14.27289.539369     0.5
GRID         549        11.41604-16.0951     0.5
GRID         550           -20.0    16.0     0.5
GRID         551        -17.911513.98979     0.5
GRID         552           -22.0    18.0     0.5
GRID         553         -15.95111.89943     0.5
GRID         554        14.53175-18.2581     0.5
GRID         555        13.15596-16.3001     0.5
GRID         556        11.72347 -14.411     0.5
GRID         557        -13.988811.58943     0.5
GRID         558        16.33916-18.3105     0.5
GRID         559        -17.9267 15.9823     0.5
GRID         560        -15.755813.89755     0.5
GRID         561           -20.0    18.0     0.5
GRID         562        14.86114-16.4678     0.5
GRID         563        13.44928 -14.528     0.5
GRID         564        16.59133-16.5972     0.5
GRID         565        18.23256-18.2846     0.5
GRID         566        -17.965717.98737     0.5
GRID         567        -15.836915.90174     0.5
GRID         568        -13.378413.60309     0.5
GRID         569        15.15697-14.6897     0.5
GRID         570         13.7883-12.7642     0.5
GRID         571        18.41351-16.5721     0.5
GRID         572        16.84305-14.8604     0.5
GRID         573        -15.936717.95128     0.5
GRID         574        20.14944-18.1745     0.5
GRID         575        -13.7333  15.852     0.5
GRID         576        15.55045-12.9153     0.5
GRID         577        18.52535-14.9602     0.5
GRID         578         -11.32414.22599     0.5
GRID         579        14.23204-10.9628     0.5
GRID         580        22.08449-18.1102     0.5
GRID         581        20.26143-16.2995     0.5
GRID         582        17.27472-13.1192     0.5
GRID         583         -13.89417.94989     0.5
GRID         584        -11.672816.07904     0.5
GRID         585        15.97212 -11.135     0.5
GRID         586        18.97527-13.3436     0.5
GRID         587         -9.284114.33708     0.5
GRID         588        14.39784-9.08256     0.5
GRID         589        24.04095-18.0868     0.5
GRID         590        22.14334-16.2084     0.5
GRID         591        20.35536-14.2922     0.5
GRID         592        -11.862118.02863     0.5
GRID         593        17.77792-11.3799     0.5
GRID         594        -9.5924516.20489     0.5
GRID         595        16.20619-9.30793     0.5
GRID         596        -7.2465614.36878     0.5
GRID         597        14.44152-7.15701     0.5
GRID         598         24.0958-16.1754     0.5
GRID         599        22.17282-14.3262     0.5
GRID         600        26.05168-18.0862     0.5
GRID         601        19.65432-11.7447     0.5
GRID         602         -9.823818.09069     0.5
GRID         603        18.05539-9.58399     0.5
GRID         604        -7.5503716.23609     0.5
GRID         605        16.28501-7.44932     0.5
GRID         606        -5.2072814.36817     0.5
GRID         607        14.46556-5.14764     0.5
GRID         608        24.07018-14.2689     0.5
GRID         609        26.14395-16.1834     0.5
GRID         610        21.61196-12.3725     0.5
GRID         611        19.93059-9.91507     0.5
GRID         612        28.09869-18.0397     0.5
GRID         613        -7.8015518.11416     0.5
GRID         614         18.1496-7.72818     0.5
GRID         615        -5.5444216.24009     0.5
GRID         616        16.31709-5.58693     0.5
GRID         617        14.62293-2.99443     0.5
GRID         618         -3.139314.37731     0.5
GRID         619         26.2336-14.3685     0.5
GRID         620        23.76768-12.3508     0.5
GRID         621        21.80683-10.2669     0.5
GRID         622        20.00964-7.98723     0.5
GRID         623        28.17832-16.2224     0.5
GRID         624        -5.8115518.12244     0.5
GRID         625        30.12477-17.8708     0.5
GRID         626        18.19374-5.85055     0.5
GRID         627         16.4426-3.85682     0.5
GRID         628        -3.60566 16.2517     0.5
GRID         629        25.81321-12.4966     0.5
GRID         630          23.694 -10.416     0.5
GRID         631        21.85878-8.23332     0.5
GRID         632        14.46779-.821718     0.5
GRID         633        -.94593114.53406     0.5
GRID         634        20.03945-6.03811     0.5
GRID         635        16.44071 -2.1441     0.5
GRID         636        32.12027-17.9396     0.5
GRID         637        18.24952-3.97368     0.5
GRID         638         -3.866318.14316     0.5
GRID         639        -1.8323216.37429     0.5
GRID         640        25.58968-10.5705     0.5
GRID         641        23.70751-8.42226     0.5
GRID         642        1.24774214.37998     0.5
GRID         643        21.87678-6.23566     0.5
GRID         644        14.457771.228025     0.5
GRID         645        34.16062-17.7748     0.5
GRID         646        16.31746-0.38581     0.5
GRID         647        20.06173-4.08777     0.5
GRID         648        -9.666-216.37463     0.5
GRID         649        18.24621 -2.0793     0.5
GRID         650        -1.9465818.19253     0.5
GRID         651        25.56361-8.61118     0.5
GRID         652        23.71712-6.43367     0.5
GRID         653        36.16422 -17.432     0.5
GRID         654        21.88618-4.24866     0.5
GRID         655        3.34767314.37236     0.5
GRID         656        14.460633.227036     0.5
GRID         657        1.68733116.25375     0.5
GRID         658        16.305141.529413     0.5
GRID         659        18.18896-0.18203     0.5
GRID         660        20.05994-2.12835     0.5
GRID         661        -2.265-218.19309     0.5
GRID         662        25.56657-6.63992     0.5
GRID         663        23.72209-4.44382     0.5
GRID         664        21.88555-2.26377     0.5
GRID         665        5.42943514.37152     0.5
GRID         666        14.461175.196291     0.5
GRID         667        3.66447116.24061     0.5
GRID         668        16.309263.481724     0.5
GRID         669        1.90555718.14377     0.5
GRID         670        18.164131.740771     0.5
GRID         671        20.03602-.170496     0.5
GRID         672        38.12529-17.6183     0.5
GRID         673        25.56836-4.65695     0.5
GRID         674        23.72258-2.45587     0.5
GRID         675        21.87603-.279589     0.5
GRID         676        7.576698 14.3519     0.5
GRID         677        14.452877.122785     0.5
GRID         678        5.71597116.23115     0.5
GRID         679        16.313325.437346     0.5
GRID         680        3.875847 18.1196     0.5
GRID         681        18.162763.690528     0.5
GRID         682        20.018971.796868     0.5
GRID         683        40.05917-17.9087     0.5
GRID         684         25.5685-2.67222     0.5
GRID         685        38.51484-15.4674     0.5
GRID         686        23.71928-.466022     0.5
GRID         687        21.86708 1.70811     0.5
GRID         688         9.8181214.27753     0.5
GRID         689        14.404818.992174     0.5
GRID         690        7.85213316.19554     0.5
GRID         691        16.306317.360513     0.5
GRID         692        5.89313818.10552     0.5
GRID         693        18.166565.661665     0.5
GRID         694        20.013893.772725     0.5
GRID         695          41.967-17.9753     0.5
GRID         696        14.2806610.72632     0.5
GRID         697        25.56748-.684686     0.5
GRID         698        23.715111.525321     0.5
GRID         699        21.862653.700843     0.5
GRID         700         13.612312.37255     0.5
GRID         701        16.247239.243702     0.5
GRID         702        7.958973 18.0778     0.5
GRID         703        18.16219 7.62491     0.5
GRID         704        20.014765.771974     0.5
GRID         705        43.87009-17.8916     0.5
GRID         706        41.06683-15.9055     0.5
GRID         707        10.0136516.11098     0.5
GRID         708        39.12126-13.4398     0.5
GRID         709        12.2595813.98183     0.5
GRID         710         25.56591.303675     0.5
GRID         711        16.0353611.08148     0.5
GRID         712        23.712093.520922     0.5
GRID         713        21.86102 5.71055     0.5
GRID         714         18.10729.568737     0.5
GRID         715        20.009827.794381     0.5
GRID         716        45.90541-17.9235     0.5
GRID         717        10.0207318.03626     0.5
GRID         718         43.5447 -15.835     0.5
GRID         719        41.32997-13.7398     0.5
GRID         720        39.44284 -11.379     0.5
GRID         721        15.4682912.83571     0.5
GRID         722        12.1553916.04573     0.5
GRID         723        25.564313.294871     0.5
GRID         724        23.710045.527038     0.5
GRID         725        17.85253 11.3699     0.5
GRID         726        21.856167.743315     0.5
GRID         727        14.5547514.48286     0.5
GRID         728        19.963159.882392     0.5
GRID         729         47.9512-17.9589     0.5
GRID         730        45.77932-15.8772     0.5
GRID         731        43.55447-13.8084     0.5
GRID         732        41.53078-11.6395     0.5
GRID         733        39.50681-9.32291     0.5
GRID         734        12.0696618.02907     0.5
GRID         735        25.562715.291458     0.5
GRID         736        14.2166816.27245     0.5
GRID         737        17.5842513.15993     0.5
GRID         738        23.708867.551464     0.5
GRID         739        21.83372 9.81198     0.5
GRID         740        16.4970714.80948     0.5
GRID         741        19.73745 12.1008     0.5
GRID         742        47.90639-15.9347     0.5
GRID         743        45.75377-13.8553     0.5
GRID         744        43.65085-11.7705     0.5
GRID         745        41.59294-9.58492     0.5
GRID         746        39.50353-7.29853     0.5
GRID         747        14.0895318.12832     0.5
GRID         748         25.5625 7.29987     0.5
GRID         749        16.26804 16.4994     0.5
GRID         750        23.728229.596986     0.5
GRID         751        21.8603211.85857     0.5
GRID         752        18.35917 14.6857     0.5
GRID         753        20.1649514.14829     0.5
GRID         754        47.89053-13.9224     0.5
GRID         755        45.78189-11.8493     0.5
GRID         756        41.59634-7.60427     0.5
GRID         757        43.69289-9.75368     0.5
GRID         758        39.51087-5.25047     0.5
GRID         759        16.1226218.23453     0.5
GRID         760        25.586979.326955     0.5
GRID         761        18.28128 16.4383     0.5
GRID         762        23.8633111.64931     0.5
GRID         763        22.1303713.87901     0.5
GRID         764        43.70608-7.80368     0.5
GRID         765        41.60756-5.69633     0.5
GRID         766        20.2730816.13932     0.5
GRID         767        47.89635-11.9224     0.5
GRID         768        45.80271-9.85434     0.5
GRID         769        18.1586818.21388     0.5
GRID         770        39.68415-3.09917     0.5
GRID         771        25.7632211.37323     0.5
GRID         772        24.2125313.68563     0.5
GRID         773        41.74592-3.97025     0.5
GRID         774        43.73572-5.90658     0.5
GRID         775        22.2906515.90344     0.5
GRID         776        45.81643-7.90062     0.5
GRID         777        20.1836218.07911     0.5
GRID         778        47.90516-9.92973     0.5
GRID         779        39.51342-.944429     0.5
GRID         780        41.74756-2.27979     0.5
GRID         781        26.3146413.38607     0.5
GRID         782        43.79918-4.05604     0.5
GRID         783         24.4725  15.712     0.5
GRID         784        45.83767-5.96831     0.5
GRID         785        22.2042617.94507     0.5
GRID         786        47.91405-7.95611     0.5
GRID         787        39.504781.090255     0.5
GRID         788        41.61161-.548465     0.5
GRID         789        43.79947-2.19996     0.5
GRID         790        26.9699915.42164     0.5
GRID         791        45.86342-4.06017     0.5
GRID         792         24.255917.81786     0.5
GRID         793        47.92477-5.99022     0.5
GRID         794        39.510913.088246     0.5
GRID         795        41.600141.349186     0.5
GRID         796         43.7373-0.34228     0.5
GRID         797        45.86221-2.14373     0.5
GRID         798        47.93383 -4.0348     0.5
GRID         799        26.2498217.75392     0.5
GRID         800        39.514755.085121     0.5
GRID         801        41.60512 3.30465     0.5
GRID         802        43.709441.555783     0.5
GRID         803        29.1315516.30272     0.5
GRID         804        45.83529-.227622     0.5
GRID         805        47.93244-2.07465     0.5
GRID         806        39.510687.095072     0.5
GRID         807        28.0784918.06308     0.5
GRID         808        41.607585.298522     0.5
GRID         809        43.70471 3.50183     0.5
GRID         810        45.815121.711851     0.5
GRID         811        31.4746216.48579     0.5
GRID         812        47.92151-.114459     0.5
GRID         813        39.464389.120028     0.5
GRID         814        29.9221618.20984     0.5
GRID         815        41.596747.330642     0.5
GRID         816        43.700455.494424     0.5
GRID         817         45.80543.674141     0.5
GRID         818        47.911141.856898     0.5
GRID         819        33.6792116.46546     0.5
GRID         820        31.8325718.20671     0.5
GRID         821        39.2250211.17279     0.5
GRID         822        41.53493 9.39587     0.5
GRID         823        43.682747.534245     0.5
GRID         824        45.797145.666705     0.5
GRID         825        35.7315816.09268     0.5
GRID         826        47.903973.838059     0.5
GRID         827        33.9052518.18834     0.5
GRID         828        38.5472213.22145     0.5
GRID         829        41.2578411.46092     0.5
GRID         830        43.624739.628366     0.5
GRID         831        45.77979 7.68671     0.5
GRID         832        47.897585.832559     0.5
GRID         833         35.983917.99063     0.5
GRID         834        37.77562 15.3168     0.5
GRID         835        40.5555213.52097     0.5
GRID         836        43.4853211.81254     0.5
GRID         837        45.743289.722063     0.5
GRID         838        47.887297.836394     0.5
GRID         839        38.0153517.72705     0.5
GRID         840        42.4277613.78856     0.5
GRID         841        40.0778315.63486     0.5
GRID         842        45.7739311.74549     0.5
GRID         843        44.2310113.87019     0.5
GRID         844        47.877439.840057     0.5
GRID         845        40.0230917.78587     0.5
GRID         846        42.1789515.82483     0.5
GRID         847        47.9078811.84803     0.5
GRID         848        46.0564513.80229     0.5
GRID         849        42.0699317.89383     0.5
GRID         850         44.173615.89903     0.5
GRID         851        48.0079313.87809     0.5
GRID         852        44.0835917.94091     0.5
GRID         853        46.1235115.89432     0.5
GRID         854        46.0699817.95367     0.5
GRID         855         48.051415.92892     0.5
GRID         856        48.0339417.97243     0.5
CTRIA3        11       0     265     262     266
CTRIA3        30       0     276     279     255
CTRIA3        60       0     294     299     306
CTRIA3        64       0     306     308      59
CTRIA3        79       0     309     319     251
CTRIA3        99       0     346     329     248
CTRIA3       113       0     344     331     347
CTRIA3       177       0     386     228     405
CTRIA3       194       0     414     402     418
CTRIA3       245       0     457     455     231
CTRIA3       262       0     479     233     234
CTRIA3       292       0     485     497     483
CTRIA3       310       0     509     507     147
CTRIA3       348       0     547     541     102
CTRIA3       369       0     556     177     178
CTRIA3       388       0     578     568     153
CTRIA3       405       0     591     586     577
CTRIA3       424       0     591     599     610
CTRIA3       457       0     627     635     617
CTRIA3       465       0     195     196     623
CTRIA3       473       0     648     639     633
CTRIA3       544       0     683     695     706
CTRIA3       545       0     696     700     165
CTRIA3       593       0     737     725     741
CTRIA3       604       0     752     740     737
CTRIA3       638       0     773     780     770
CTRIA3       667       0     803     790     211
CTRIA3       682       0     814     807     803
CTRIA3       705       0     825     214     834
CTRIA3       723       0     843     840     836
CQUAD4         1       0     259      70      71      72
CQUAD4         2       0     260     259      72      73
CQUAD4         3       0     261      69      70     259
CQUAD4         4       0     262     260      73      74
CQUAD4         5       0     259     260     263     261
CQUAD4         6       0     264      68      69     261
CQUAD4         7       0     260     262     265     263
CQUAD4         8       0      74      75     266     262
CQUAD4         9       0     264     267      67      68
CQUAD4        10       0     261     263     268     264
CQUAD4        12       0     268     263     265     269
CQUAD4        13       0      66      67     267     270
CQUAD4        14       0     272     266      75      76
CQUAD4        15       0     268     271     267     264
CQUAD4        16       0     269     265     266     257
CQUAD4        17       0     268     269     273     271
CQUAD4        18       0      65      66     270     274
CQUAD4        19       0     270     267     271     275
CQUAD4        20       0     276     272      76      77
CQUAD4        21       0     266     272     256     257
CQUAD4        22       0     271     273     277     275
CQUAD4        23       0     269     257     258     273
CQUAD4        24       0     274     270     275     278
CQUAD4        25       0     280      64      65     274
CQUAD4        26       0     279     276      77      78
CQUAD4        27       0     255     256     272     276
CQUAD4        28       0     258     243     277     273
CQUAD4        29       0     277     281     278     275
CQUAD4        31       0     282     279      78      79
CQUAD4        32       0     283     280     274     278
CQUAD4        33       0     284      63      64     280
CQUAD4        34       0     243     244     281     277
CQUAD4        35       0     255     279     282     254
CQUAD4        36       0     286     283     278     281
CQUAD4        37       0      80     287     282      79
CQUAD4        38       0     284     285      62      63
CQUAD4        39       0     288     284     280     283
CQUAD4        40       0     286     281     244     245
CQUAD4        41       0     287     253     254     282
CQUAD4        42       0      81     289     287      80
CQUAD4        43       0     285     290      61      62
CQUAD4        44       0     288     291     285     284
CQUAD4        45       0     292     288     283     286
CQUAD4        46       0     287     289     293     253
CQUAD4        47       0      61     290     294      60
CQUAD4        48       0     289      81      82     296
CQUAD4        49       0     291     297     290     285
CQUAD4        50       0     295     292     286     245
CQUAD4        51       0     292     298     291     288
CQUAD4        52       0     290     297     299     294
CQUAD4        53       0     293     289     296     303
CQUAD4        54       0      60     294     306      59
CQUAD4        55       0      82      83     302     296
CQUAD4        56       0     293     305     252     253
CQUAD4        57       0     295     245     246     304
CQUAD4        58       0     298     292     295     300
CQUAD4        59       0     298     301     297     291
CQUAD4        61       0     297     301     307     299
CQUAD4        62       0     300     295     304     310
CQUAD4        63       0     305     293     303     314
CQUAD4        65       0      83      84     313     302
CQUAD4        66       0     296     302     311     303
CQUAD4        67       0     301     298     300     312
CQUAD4        68       0     305     309     251     252
CQUAD4        69       0     317      58      59     308
CQUAD4        70       0     316     304     246     247
CQUAD4        71       0     299     307     315     306
CQUAD4        72       0     301     312     318     307
CQUAD4        73       0     312     300     310     321
CQUAD4        74       0     324     313      84      85
CQUAD4        75       0     302     313     323     311
CQUAD4        76       0     322     314     303     311
CQUAD4        77       0     314     325     309     305
CQUAD4        78       0     306     315     320     308
CQUAD4        80       0     317     327      57      58
CQUAD4        81       0     326     310     304     316
CQUAD4        82       0     248     329     316     247
CQUAD4        83       0     250     251     319     330
CQUAD4        84       0     307     318     328     315
CQUAD4        85       0     308     320     331     317
CQUAD4        86       0     321     333     318     312
CQUAD4        87       0     325     337     319     309
CQUAD4        88       0      85      86     336     324
CQUAD4        89       0     338     323     313     324
CQUAD4        90       0     339     322     311     323
CQUAD4        91       0     314     322     335     325
CQUAD4        92       0     321     310     326     334
CQUAD4        93       0     327     340      56      57
CQUAD4        94       0     249     250     330     342
CQUAD4        95       0     315     328     341     320
CQUAD4        96       0     329     343     326     316
CQUAD4        97       0     331     344     327     317
CQUAD4        98       0     332     346     248     249
CQUAD4       100       0     333     345     328     318
CQUAD4       101       0     330     319     337     350
CQUAD4       102       0     320     341     347     331
CQUAD4       103       0     334     355     333     321
CQUAD4       104       0     249     342     358     332
CQUAD4       105       0      86      87     348     336
CQUAD4       106       0     324     336     353     338
CQUAD4       107       0     352     339     323     338
CQUAD4       108       0     322     339     349     335
CQUAD4       109       0     325     335     351     337
CQUAD4       110       0     357      55      56     340
CQUAD4       111       0     343     354     334     326
CQUAD4       112       0     344     356     340     327
CQUAD4       114       0     346     359     343     329
CQUAD4       115       0     345     241     341     328
CQUAD4       116       0     342     330     350     368
CQUAD4       117       0     333     355     360     345
CQUAD4       118       0     334     354     361     355
CQUAD4       119       0     366     348      87      88
CQUAD4       120       0     336     348     367     353
CQUAD4       121       0     338     353     363     352
CQUAD4       122       0     364     349     339     352
CQUAD4       123       0     335     349     362     351
CQUAD4       124       0     369     350     337     351
CQUAD4       125       0     356     344     347     370
CQUAD4       126       0     346     332     372     359
CQUAD4       127       0     373     357     340     356
CQUAD4       128       0     374      54      55     357
CQUAD4       129       0     359     365     354     343
CQUAD4       130       0     241     242     347     341
CQUAD4       131       0     372     332     358     384
CQUAD4       132       0     355     361     371     360
CQUAD4       133       0     378     358     342     368
CQUAD4       134       0     360     240     241     345
CQUAD4       135       0     354     365     375     361
CQUAD4       136       0     376     367     348     366
CQUAD4       137       0     353     367     381     363
CQUAD4       138       0     352     363     380     364
CQUAD4       139       0     382     362     349     364
CQUAD4       140       0     379     369     351     362
CQUAD4       141       0     383     368     350     369
CQUAD4       142       0     385     366      88      89
CQUAD4       143       0     370     347     242     227
CQUAD4       144       0     370     386     373     356
CQUAD4       145       0      53      54     374     387
CQUAD4       146       0     365     359     372     377
CQUAD4       147       0     240     360     371     239
CQUAD4       148       0     389     374     357     373
CQUAD4       149       0     371     361     375     388
CQUAD4       150       0     393     384     358     378
CQUAD4       151       0     375     365     377     390
CQUAD4       152       0     394     381     367     376
CQUAD4       153       0     363     381     398     380
CQUAD4       154       0     364     380     391     382
CQUAD4       155       0     397     379     362     382
CQUAD4       156       0     392     383     369     379
CQUAD4       157       0     368     383     396     378
CQUAD4       158       0     372     384     395     377
CQUAD4       159       0     400     385      89      90
CQUAD4       160       0     401     376     366     385
CQUAD4       161       0     227     228     386     370
CQUAD4       162       0     387     399      52      53
CQUAD4       163       0     238     239     371     388
CQUAD4       164       0     387     374     389     402
CQUAD4       165       0     386     405     389     373
CQUAD4       166       0     388     375     390     403
CQUAD4       167       0     390     377     395     404
CQUAD4       168       0     411     398     381     394
CQUAD4       169       0     380     398     410     391
CQUAD4       170       0     406     397     382     391
CQUAD4       171       0     409     392     379     397
CQUAD4       172       0     383     392     412     396
CQUAD4       173       0     378     396     408     393
CQUAD4       174       0     384     393     407     395
CQUAD4       175       0     399      50      51      52
CQUAD4       176       0      90      91     413     400
CQUAD4       178       0     415     394     376     401
CQUAD4       179       0     416     401     385     400
CQUAD4       180       0     402     414     399     387
CQUAD4       181       0     403     237     238     388
CQUAD4       182       0     403     390     404     417
CQUAD4       183       0     402     389     405     418
CQUAD4       184       0     404     395     407     419
CQUAD4       185       0     423     410     398     411
CQUAD4       186       0     424     406     391     410
CQUAD4       187       0     420     409     397     406
CQUAD4       188       0     421     412     392     409
CQUAD4       189       0     396     412     422     408
CQUAD4       190       0     393     408     425     407
CQUAD4       191       0      91      92     426     413
CQUAD4       192       0     414      49      50     399
CQUAD4       193       0     427     411     394     415
CQUAD4       195       0     228     229     429     405
CQUAD4       196       0     400     413     428     416
CQUAD4       197       0     189     415     401     416
CQUAD4       198       0     237     403     417     430
CQUAD4       199       0     417     404     419     431
CQUAD4       200       0     419     407     425     433
CQUAD4       201       0     436     424     410     423
CQUAD4       202       0     437     420     406     424
CQUAD4       203       0     409     420     434     421
CQUAD4       204       0     432     422     412     421
CQUAD4       205       0     408     422     435     425
CQUAD4       206       0      49     414     418      48
CQUAD4       207       0      92      93     438     426
CQUAD4       208       0     439     423     411     427
CQUAD4       209       0     418     405     429     440
CQUAD4       210       0     413     426     441     428
CQUAD4       211       0     141     427     415     189
CQUAD4       212       0     416     428     188     189
CQUAD4       213       0     229     230     442     429
CQUAD4       214       0     430     444     236     237
CQUAD4       215       0     417     431     443     430
CQUAD4       216       0     431     419     433     449
CQUAD4       217       0     450     437     424     436
CQUAD4       218       0     420     437     446     434
CQUAD4       219       0     447     433     425     435
CQUAD4       220       0     421     434     445     432
CQUAD4       221       0     448     435     422     432
CQUAD4       222       0      48     418     440      47
CQUAD4       223       0      93      94     451     438
CQUAD4       224       0     439     452     436     423
CQUAD4       225       0     426     438     454     441
CQUAD4       226       0     142     439     427     141
CQUAD4       227       0     428     441     187     188
CQUAD4       228       0     429     442     453     440
CQUAD4       229       0     231     455     442     230
CQUAD4       230       0     430     443     456     444
CQUAD4       231       0     431     449     461     443
CQUAD4       232       0     444     458     235     236
CQUAD4       233       0     463     449     433     447
CQUAD4       234       0     462     446     437     450
CQUAD4       235       0     434     446     464     445
CQUAD4       236       0     459     447     435     448
CQUAD4       237       0     432     445     460     448
CQUAD4       238       0     466     451      94      95
CQUAD4       239       0     452     467     450     436
CQUAD4       240       0     440     453      46      47
CQUAD4       241       0     438     451     468     454
CQUAD4       242       0     142     143     452     439
CQUAD4       243       0     441     454     186     187
CQUAD4       244       0     465     453     442     455
CQUAD4       246       0     231     232     469     457
CQUAD4       247       0     234     235     458     472
CQUAD4       248       0     443     461     474     456
CQUAD4       249       0     444     456     471     458
CQUAD4       250       0     476     461     449     463
CQUAD4       251       0     477     463     447     459
CQUAD4       252       0     475     464     446     462
CQUAD4       253       0     478     459     448     460
CQUAD4       254       0     445     464     473     460
CQUAD4       255       0     480     466      95      96
CQUAD4       256       0     453     465      45      46
CQUAD4       257       0     467     481     462     450
CQUAD4       258       0     470     465     455     457
CQUAD4       259       0     451     466     482     468
CQUAD4       260       0     143     144     467     452
CQUAD4       261       0     454     468     185     186
CQUAD4       263       0     233     483     469     232
CQUAD4       264       0     457     469     484     470
CQUAD4       265       0     479     234     472     487
CQUAD4       266       0     456     474     492     471
CQUAD4       267       0     458     471     486     472
CQUAD4       268       0     491     474     461     476
CQUAD4       269       0     488     476     463     477
CQUAD4       270       0     489     477     459     478
CQUAD4       271       0     493     473     464     475
CQUAD4       272       0     490     478     460     473
CQUAD4       273       0     465     470      44      45
CQUAD4       274       0     494     480      96      97
CQUAD4       275       0     481     495     475     462
CQUAD4       276       0     483     233     479     485
CQUAD4       277       0     466     480     496     482
CQUAD4       278       0     144     145     481     467
CQUAD4       279       0     468     482     184     185
CQUAD4       280       0     497     484     469     483
CQUAD4       281       0     470     484      43      44
CQUAD4       282       0     472     486     499     487
CQUAD4       283       0     471     492     504     486
CQUAD4       284       0     501     492     474     491
CQUAD4       285       0     502     491     476     488
CQUAD4       286       0     477     489     500     488
CQUAD4       287       0     505     489     478     490
CQUAD4       288       0     503     490     473     493
CQUAD4       289       0     498     485     479     487
CQUAD4       290       0     506     494      97      98
CQUAD4       291       0     495     507     493     475
CQUAD4       293       0     508     496     480     494
CQUAD4       294       0     145     146     495     481
CQUAD4       295       0     482     496     183     184
CQUAD4       296       0     484     497      42      43
CQUAD4       297       0     510     497     485     498
CQUAD4       298       0     507     509     503     493
CQUAD4       299       0     487     499     511     498
CQUAD4       300       0     486     504     517     499
CQUAD4       301       0     513     504     492     501
CQUAD4       302       0     515     501     491     502
CQUAD4       303       0     488     500     516     502
CQUAD4       304       0     489     505     512     500
CQUAD4       305       0     514     505     490     503
CQUAD4       306       0     518     506      98      99
CQUAD4       307       0     494     506     519     508
CQUAD4       308       0     146     147     507     495
CQUAD4       309       0     182     183     496     508
CQUAD4       311       0     509     520     514     503
CQUAD4       312       0      41      42     497     510
CQUAD4       313       0     498     511     521     510
CQUAD4       314       0     499     517     527     511
CQUAD4       315       0     523     517     504     513
CQUAD4       316       0     524     513     501     515
CQUAD4       317       0     502     516     526     515
CQUAD4       318       0     500     512     525     516
CQUAD4       319       0     522     512     505     514
CQUAD4       320       0     528     518      99     100
CQUAD4       321       0     506     518     529     519
CQUAD4       322       0     508     519     181     182
CQUAD4       323       0     520     509     147     148
CQUAD4       324       0     522     514     520     530
CQUAD4       325       0     510     521      40      41
CQUAD4       326       0     511     527     537     521
CQUAD4       327       0     532     523     513     524
CQUAD4       328       0     533     527     517     523
CQUAD4       329       0     515     526     536     524
CQUAD4       330       0     516     525     535     526
CQUAD4       331       0     534     525     512     522
CQUAD4       332       0     101     531     528     100
CQUAD4       333       0     538     529     518     528
CQUAD4       334       0     519     529     180     181
CQUAD4       335       0     530     520     148     149
CQUAD4       336       0     534     522     530     539
CQUAD4       337       0     102     541     531     101
CQUAD4       338       0     521     537      39      40
CQUAD4       339       0     524     536     545     532
CQUAD4       340       0     544     533     523     532
CQUAD4       341       0     542     537     527     533
CQUAD4       342       0     543     535     525     534
CQUAD4       343       0     526     535     546     536
CQUAD4       344       0     531     540     538     528
CQUAD4       345       0     179     180     529     538
CQUAD4       346       0     539     530     149     150
CQUAD4       347       0     543     534     539     548
CQUAD4       349       0     541     549     540     531
CQUAD4       350       0     536     546     551     545
CQUAD4       351       0     550     544     532     545
CQUAD4       352       0      38      39     537     542
CQUAD4       353       0     552     542     533     544
CQUAD4       354       0     553     546     535     543
CQUAD4       355       0     554     547     102     103
CQUAD4       356       0     179     538     540     178
CQUAD4       357       0     548     539     150     151
CQUAD4       358       0     547     555     549     541
CQUAD4       359       0     543     548     557     553
CQUAD4       360       0     556     178     540     549
CQUAD4       361       0     560     551     546     553
CQUAD4       362       0     559     550     545     551
CQUAD4       363       0      37      38     542     552
CQUAD4       364       0     561     552     544     550
CQUAD4       365       0     103     104     558     554
CQUAD4       366       0     554     562     555     547
CQUAD4       367       0     152     557     548     151
CQUAD4       368       0     555     563     556     549
CQUAD4       370       0     565     558     104     105
CQUAD4       371       0     567     559     551     560
CQUAD4       372       0      36      37     552     561
CQUAD4       373       0     566     561     550     559
CQUAD4       374       0     553     557     568     560
CQUAD4       375       0     554     558     564     562
CQUAD4       376       0     562     569     563     555
CQUAD4       377       0     563     570     177     556
CQUAD4       378       0     568     557     152     153
CQUAD4       379       0     571     564     558     565
CQUAD4       380       0     574     565     105     106
CQUAD4       381       0      35      36     561     566
CQUAD4       382       0     573     566     559     567
CQUAD4       383       0     562     564     572     569
CQUAD4       384       0     567     560     568     575
CQUAD4       385       0     569     576     570     563
CQUAD4       386       0     570     579     176     177
CQUAD4       387       0     577     572     564     571
CQUAD4       389       0     581     571     565     574
CQUAD4       390       0     580     574     106     107
CQUAD4       391       0      34      35     566     573
CQUAD4       392       0     575     583     573     567
CQUAD4       393       0     569     572     582     576
CQUAD4       394       0     575     568     578     584
CQUAD4       395       0     576     585     579     570
CQUAD4       396       0     587     578     153     154
CQUAD4       397       0     586     582     572     577
CQUAD4       398       0     579     588     175     176
CQUAD4       399       0     581     591     577     571
CQUAD4       400       0     589     580     107     108
CQUAD4       401       0     590     581     574     580
CQUAD4       402       0     583      33      34     573
CQUAD4       403       0     584     592     583     575
CQUAD4       404       0     576     582     593     585
CQUAD4       406       0     594     584     578     587
CQUAD4       407       0     585     595     588     579
CQUAD4       408       0     596     587     154     155
CQUAD4       409       0     174     175     588     597
CQUAD4       410       0     582     586     601     593
CQUAD4       411       0     598     590     580     589
CQUAD4       412       0     581     590     599     591
CQUAD4       413       0     600     589     108     109
CQUAD4       414       0     592      32      33     583
CQUAD4       415       0     594     602     592     584
CQUAD4       416       0     585     593     603     595
CQUAD4       417       0     604     594     587     596
CQUAD4       418       0     597     588     595     605
CQUAD4       419       0     591     610     601     586
CQUAD4       420       0     155     156     606     596
CQUAD4       421       0     173     174     597     607
CQUAD4       422       0     590     598     608     599
CQUAD4       423       0     609     598     589     600
CQUAD4       425       0     109     110     612     600
CQUAD4       426       0     602      31      32     592
CQUAD4       427       0     593     601     611     603
CQUAD4       428       0     613     602     594     604
CQUAD4       429       0     605     595     603     614
CQUAD4       430       0     596     606     615     604
CQUAD4       431       0     607     597     605     616
CQUAD4       432       0     156     157     618     606
CQUAD4       433       0     172     173     607     617
CQUAD4       434       0     619     608     598     609
CQUAD4       435       0     599     608     620     610
CQUAD4       436       0     601     610     621     611
CQUAD4       437       0     600     612     623     609
CQUAD4       438       0     625     612     110     111
CQUAD4       439       0      30      31     602     613
CQUAD4       440       0     614     603     611     622
CQUAD4       441       0     604     615     624     613
CQUAD4       442       0     616     605     614     626
CQUAD4       443       0     617     607     616     627
CQUAD4       444       0     606     618     628     615
CQUAD4       445       0     629     620     608     619
CQUAD4       446       0     633     618     157     158
CQUAD4       447       0     171     172     617     632
CQUAD4       448       0     610     620     630     621
CQUAD4       449       0     622     611     621     631
CQUAD4       450       0     623     196     619     609
CQUAD4       451       0     636     625     111     112
CQUAD4       452       0     613     624      29      30
CQUAD4       453       0     626     614     622     634
CQUAD4       454       0     625     195     623     612
CQUAD4       455       0     626     637     627     616
CQUAD4       456       0     615     628     638     624
CQUAD4       458       0     633     639     628     618
CQUAD4       459       0     640     630     620     629
CQUAD4       460       0     631     621     630     641
CQUAD4       461       0     619     196     197     629
CQUAD4       462       0     642     633     158     159
CQUAD4       463       0     632     644     170     171
CQUAD4       464       0     617     635     646     632
CQUAD4       466       0     634     622     631     643
CQUAD4       467       0     645     636     112     113
CQUAD4       468       0     634     647     637     626
CQUAD4       469       0     624     638      28      29
CQUAD4       470       0     637     649     635     627
CQUAD4       471       0     194     195     625     636
CQUAD4       472       0     628     639     650     638
CQUAD4       474       0     197     198     640     629
CQUAD4       475       0     641     630     640     651
CQUAD4       476       0     643     631     641     652
CQUAD4       477       0     655     642     159     160
CQUAD4       478       0     644     656     169     170
CQUAD4       479       0     646     658     644     632
CQUAD4       480       0     653     645     113     114
CQUAD4       481       0     657     648     633     642
CQUAD4       482       0     647     634     643     654
CQUAD4       483       0     646     635     649     659
CQUAD4       484       0     647     660     649     637
CQUAD4       485       0     638     650      27      28
CQUAD4       486       0     639     648     661     650
CQUAD4       487       0     636     645     193     194
CQUAD4       488       0     651     640     198     199
CQUAD4       489       0     652     641     651     662
CQUAD4       490       0     654     643     652     663
CQUAD4       491       0     665     655     160     161
CQUAD4       492       0     656     666     168     169
CQUAD4       493       0     667     657     642     655
CQUAD4       494       0     658     668     656     644
CQUAD4       495       0     660     647     654     664
CQUAD4       496       0     659     670     658     646
CQUAD4       497       0     669     661     648     657
CQUAD4       498       0     672     653     114     115
CQUAD4       499       0     659     649     660     671
CQUAD4       500       0     650     661      26      27
CQUAD4       501       0     193     645     653     192
CQUAD4       502       0     662     651     199     200
CQUAD4       503       0     663     652     662     673
CQUAD4       504       0     664     654     663     674
CQUAD4       505       0     676     665     161     162
CQUAD4       506       0     666     677     167     168
CQUAD4       507       0     678     667     655     665
CQUAD4       508       0     668     679     666     656
CQUAD4       509       0     680     669     657     667
CQUAD4       510       0     671     660     664     675
CQUAD4       511       0     670     681     668     658
CQUAD4       512       0     671     682     670     659
CQUAD4       513       0      25      26     661     669
CQUAD4       514       0     115     116     683     672
CQUAD4       515       0     685     192     653     672
CQUAD4       516       0     673     662     200     201
CQUAD4       517       0     674     663     673     684
CQUAD4       518       0     675     664     674     686
CQUAD4       519       0     162     163     688     676
CQUAD4       520       0     677     689     166     167
CQUAD4       521       0     690     678     665     676
CQUAD4       522       0     679     691     677     666
CQUAD4       523       0     692     680     667     678
CQUAD4       524       0     675     687     682     671
CQUAD4       525       0     681     693     679     668
CQUAD4       526       0      24      25     669     680
CQUAD4       527       0     682     694     681     670
CQUAD4       528       0     116     117     695     683
CQUAD4       529       0     684     673     201     202
CQUAD4       530       0     683     706     685     672
CQUAD4       531       0     686     674     684     697
CQUAD4       532       0     689     696     165     166
CQUAD4       533       0     686     698     687     675
CQUAD4       534       0     192     685     708     191
CQUAD4       535       0     691     701     689     677
CQUAD4       536       0     676     688     707     690
CQUAD4       537       0     164     709     688     163
CQUAD4       538       0     687     699     694     682
CQUAD4       539       0     702     692     678     690
CQUAD4       540       0     693     703     691     679
CQUAD4       541       0      23      24     680     692
CQUAD4       542       0     694     704     693     681
CQUAD4       543       0     705     695     117     118
CQUAD4       546       0     697     684     202     203
CQUAD4       547       0     164     165     700     709
CQUAD4       548       0     697     710     698     686
CQUAD4       549       0     701     711     696     689
CQUAD4       550       0     698     712     699     687
CQUAD4       551       0     699     713     704     694
CQUAD4       552       0     719     708     685     706
CQUAD4       553       0     703     714     701     691
CQUAD4       554       0     707     717     702     690
CQUAD4       555       0      22      23     692     702
CQUAD4       556       0     704     715     703     693
CQUAD4       557       0     716     705     118     119
CQUAD4       558       0     718     706     695     705
CQUAD4       559       0     708     720     190     191
CQUAD4       560       0     709     722     707     688
CQUAD4       561       0     711     721     700     696
CQUAD4       562       0     203     204     710     697
CQUAD4       563       0     710     723     712     698
CQUAD4       564       0     712     724     713     699
CQUAD4       565       0     701     714     725     711
CQUAD4       566       0     709     700     721     727
CQUAD4       567       0     713     726     715     704
CQUAD4       568       0     715     728     714     703
CQUAD4       569       0     717      21      22     702
CQUAD4       570       0     729     716     119     120
CQUAD4       571       0     730     718     705     716
CQUAD4       572       0     731     719     706     718
CQUAD4       573       0     719     732     720     708
CQUAD4       574       0     722     734     717     707
CQUAD4       575       0     720     733     226     190
CQUAD4       576       0     204     205     723     710
CQUAD4       577       0     723     735     724     712
CQUAD4       578       0     736     722     709     727
CQUAD4       579       0     711     725     737     721
CQUAD4       580       0     724     738     726     713
CQUAD4       581       0     726     739     728     715
CQUAD4       582       0     714     728     741     725
CQUAD4       583       0     122     729     120     121
CQUAD4       584       0     742     730     716     729
CQUAD4       585       0     743     731     718     730
CQUAD4       586       0     734      20      21     717
CQUAD4       587       0     744     732     719     731
CQUAD4       588       0     732     745     733     720
CQUAD4       589       0     721     737     740     727
CQUAD4       590       0     225     226     733     746
CQUAD4       591       0     205     206     735     723
CQUAD4       592       0     747     734     722     736
CQUAD4       594       0     735     748     738     724
CQUAD4       595       0     738     750     739     726
CQUAD4       596       0     727     740     749     736
CQUAD4       597       0     751     741     728     739
CQUAD4       598       0     123     742     729     122
CQUAD4       599       0     754     743     730     742
CQUAD4       600       0     755     744     731     743
CQUAD4       601       0     757     745     732     744
CQUAD4       602       0      19      20     734     747
CQUAD4       603       0     746     733     745     756
CQUAD4       605       0     224     225     746     758
CQUAD4       606       0     206     207     748     735
CQUAD4       607       0     737     741     753     752
CQUAD4       608       0     736     749     759     747
CQUAD4       609       0     748     760     750     738
CQUAD4       610       0     762     751     739     750
CQUAD4       611       0     761     749     740     752
CQUAD4       612       0     763     753     741     751
CQUAD4       613       0     124     754     742     123
CQUAD4       614       0     743     754     767     755
CQUAD4       615       0     768     757     744     755
CQUAD4       616       0     756     745     757     764
CQUAD4       617       0     758     746     756     765
CQUAD4       618       0     747     759      18      19
CQUAD4       619       0     223     224     758     770
CQUAD4       620       0     207     208     760     748
CQUAD4       621       0     752     753     766     761
CQUAD4       622       0     769     759     749     761
CQUAD4       623       0     762     750     760     771
CQUAD4       624       0     772     763     751     762
CQUAD4       625       0     775     766     753     763
CQUAD4       626       0     765     756     764     774
CQUAD4       627       0     754     124     125     767
CQUAD4       628       0     765     773     770     758
CQUAD4       629       0     764     757     768     776
CQUAD4       630       0     755     767     778     768
CQUAD4       631       0      17      18     759     769
CQUAD4       632       0     769     761     766     777
CQUAD4       633       0     222     223     770     779
CQUAD4       634       0     771     760     208     209
CQUAD4       635       0     772     762     771     781
CQUAD4       636       0     783     775     763     772
CQUAD4       637       0     773     765     774     782
CQUAD4       639       0     774     764     776     784
CQUAD4       640       0     785     777     766     775
CQUAD4       641       0     767     125     126     778
CQUAD4       642       0     776     768     778     786
CQUAD4       643       0      16      17     769     777
CQUAD4       644       0     779     787     221     222
CQUAD4       645       0     779     770     780     788
CQUAD4       646       0     781     771     209     210
CQUAD4       647       0     780     773     782     789
CQUAD4       648       0     772     781     790     783
CQUAD4       649       0     784     791     782     774
CQUAD4       650       0     792     785     775     783
CQUAD4       651       0     784     776     786     793
CQUAD4       652       0      15      16     777     785
CQUAD4       653       0     786     778     126     127
CQUAD4       654       0     787     794     220     221
CQUAD4       655       0     788     795     787     779
CQUAD4       656       0     788     780     789     796
CQUAD4       657       0     790     781     210     211
CQUAD4       658       0     791     797     789     782
CQUAD4       659       0     783     790     799     792
CQUAD4       660       0     793     798     791     784
CQUAD4       661       0      14      15     785     792
CQUAD4       662       0     793     786     127     128
CQUAD4       663       0     794     800     219     220
CQUAD4       664       0     794     787     795     801
CQUAD4       665       0     796     802     795     788
CQUAD4       666       0     796     789     797     804
CQUAD4       668       0     798     805     797     791
CQUAD4       669       0     792     799      13      14
CQUAD4       670       0     798     793     128     129
CQUAD4       671       0     803     807     799     790
CQUAD4       672       0     800     806     218     219
CQUAD4       673       0     800     794     801     808
CQUAD4       674       0     801     795     802     809
CQUAD4       675       0     804     810     802     796
CQUAD4       676       0     804     797     805     812
CQUAD4       677       0     811     803     211     212
CQUAD4       678       0     805     798     129     130
CQUAD4       679       0     807      12      13     799
CQUAD4       680       0     806     813     217     218
CQUAD4       681       0     808     815     806     800
CQUAD4       683       0     808     801     809     816
CQUAD4       684       0     810     817     809     802
CQUAD4       685       0     812     818     810     804
CQUAD4       686       0     812     805     130     131
CQUAD4       687       0     814     803     811     820
CQUAD4       688       0     819     811     212     213
CQUAD4       689       0     216     217     813     821
CQUAD4       690       0      11      12     807     814
CQUAD4       691       0     815     822     813     806
CQUAD4       692       0     816     823     815     808
CQUAD4       693       0     817     824     816     809
CQUAD4       694       0     817     810     818     826
CQUAD4       695       0     825     819     213     214
CQUAD4       696       0     131     132     818     812
CQUAD4       697       0     827     820     811     819
CQUAD4       698       0     215     216     821     828
CQUAD4       699       0     814     820      10      11
CQUAD4       700       0     821     813     822     829
CQUAD4       701       0     823     830     822     815
CQUAD4       702       0     214     215     828     834
CQUAD4       703       0     824     831     823     816
CQUAD4       704       0     824     817     826     832
CQUAD4       706       0     833     827     819     825
CQUAD4       707       0     826     818     132     133
CQUAD4       708       0     820     827       9      10
CQUAD4       709       0     828     821     829     835
CQUAD4       710       0     836     829     822     830
CQUAD4       711       0     831     837     830     823
CQUAD4       712       0     832     838     831     824
CQUAD4       713       0     832     826     133     134
CQUAD4       714       0     834     839     833     825
CQUAD4       715       0       8       9     827     833
CQUAD4       716       0     841     834     828     835
CQUAD4       717       0     836     840     835     829
CQUAD4       718       0     842     836     830     837
CQUAD4       719       0     838     844     837     831
CQUAD4       720       0     134     135     838     832
CQUAD4       721       0     839       7       8     833
CQUAD4       722       0     845     839     834     841
CQUAD4       724       0     835     840     846     841
CQUAD4       725       0     848     843     836     842
CQUAD4       726       0     847     842     837     844
CQUAD4       727       0     135     136     844     838
CQUAD4       728       0       6       7     839     845
CQUAD4       729       0     840     843     850     846
CQUAD4       730       0     849     845     841     846
CQUAD4       731       0     851     848     842     847
CQUAD4       732       0     137     847     844     136
CQUAD4       733       0     853     850     843     848
CQUAD4       734       0       5       6     845     849
CQUAD4       735       0     852     849     846     850
CQUAD4       736       0     138     851     847     137
CQUAD4       737       0     855     853     848     851
CQUAD4       738       0       4       5     849     852
CQUAD4       739       0     850     853     854     852
CQUAD4       740       0     139     855     851     138
CQUAD4       741       0     852     854       3       4
CQUAD4       742       0     856     854     853     855
CQUAD4       743       0       2       3     854     856
CQUAD4       744       0     140     856     855     139
CQUAD4       745       0       1       2     856     140
ENDDATA
