CEND
BEGIN BULK
GRID           1             5.0    45.0     0.0
GRID           2            15.0    45.0     0.0
GRID           3            25.0    45.0     0.0
GRID           4            25.0    50.0     0.0
GRID           5            12.5    50.0     0.0
GRID           6             0.0    50.0     0.0
GRID           7        17.9289332.07107     0.0
GRID           8        21.17317 34.2388     0.0
GRID           9            25.0    35.0     0.0
GRID          10            25.0    40.0     0.0
GRID          11            17.5    40.0     0.0
GRID          12            10.0    40.0     0.0
GRID          13        17.9289317.92893     0.0
GRID          14         15.761221.17317     0.0
GRID          15            15.0    25.0     0.0
GRID          16            10.0    25.0     0.0
GRID          17            10.0    17.5     0.0
GRID          18            10.0    10.0     0.0
GRID          19        32.0710717.92893     0.0
GRID          20        28.82683 15.7612     0.0
GRID          21            25.0    15.0     0.0
GRID          22            25.0    10.0     0.0
GRID          23            32.5    10.0     0.0
GRID          24            40.0    10.0     0.0
GRID          25        32.0710732.07107     0.0
GRID          26         34.238828.82683     0.0
GRID          27            35.0    25.0     0.0
GRID          28            40.0    25.0     0.0
GRID          29            40.0    32.5     0.0
GRID          30            40.0    40.0     0.0
GRID          31             5.0    25.0     0.0
GRID          32             5.0    15.0     0.0
GRID          33             5.0     5.0     0.0
GRID          34            25.0     5.0     0.0
GRID          35            35.0     5.0     0.0
GRID          36            45.0     5.0     0.0
GRID          37            45.0    25.0     0.0
GRID          38            45.0    35.0     0.0
GRID          39            45.0    45.0     0.0
GRID          40             0.0    25.0     0.0
GRID          41             0.0    12.5     0.0
GRID          42             0.0     0.0     0.0
GRID          43            25.0     0.0     0.0
GRID          44            37.5     0.0     0.0
GRID          45            50.0     0.0     0.0
GRID          46            50.0    25.0     0.0
GRID          47            50.0    37.5     0.0
GRID          48            50.0    50.0     0.0
GRID          49            50.0    12.5     0.0
GRID          50            45.0    15.0     0.0
GRID          51            12.5     0.0     0.0
GRID          52            15.0     5.0     0.0
GRID          53             0.0    37.5     0.0
GRID          54             5.0    35.0     0.0
GRID          55            40.0    17.5     0.0
GRID          56            17.5    10.0     0.0
GRID          57            10.0    32.5     0.0
GRID          58         34.238821.17317     0.0
GRID          59        21.17317 15.7612     0.0
GRID          60            32.5    40.0     0.0
GRID          61        28.82683 34.2388     0.0
GRID          62            35.0    45.0     0.0
GRID          63         15.761228.82683     0.0
GRID          64            37.5    50.0     0.0
CQUAD4         1       0       4       5       2       3
CQUAD4         2       0       5       6       1       2
CQUAD4         3       0      10      11       8       9
CQUAD4         4       0      11      12       7       8
CQUAD4         5       0       3       2      11      10
CQUAD4         6       0       2       1      12      11
CQUAD4         7       0      16      17      14      15
CQUAD4         8       0      17      18      13      14
CQUAD4         9       0      22      23      20      21
CQUAD4        10       0      23      24      19      20
CQUAD4        11       0      28      29      26      27
CQUAD4        12       0      29      30      25      26
CQUAD4        13       0      31      32      17      16
CQUAD4        14       0      32      33      18      17
CQUAD4        15       0      34      35      23      22
CQUAD4        16       0      35      36      24      23
CQUAD4        17       0      37      38      29      28
CQUAD4        18       0      38      39      30      29
CQUAD4        19       0      40      41      32      31
CQUAD4        20       0      41      42      33      32
CQUAD4        21       0      43      44      35      34
CQUAD4        22       0      44      45      36      35
CQUAD4        23       0      46      47      38      37
CQUAD4        24       0      47      48      39      38
CQUAD4        25       0      36      45      49      50
CQUAD4        26       0      50      49      46      37
CQUAD4        27       0      33      42      51      52
CQUAD4        28       0      52      51      43      34
CQUAD4        29       0       1       6      53      54
CQUAD4        30       0      54      53      40      31
CQUAD4        31       0      24      36      50      55
CQUAD4        32       0      55      50      37      28
CQUAD4        33       0      18      33      52      56
CQUAD4        34       0      56      52      34      22
CQUAD4        35       0      12       1      54      57
CQUAD4        36       0      57      54      31      16
CQUAD4        37       0      19      24      55      58
CQUAD4        38       0      58      55      28      27
CQUAD4        39       0      13      18      56      59
CQUAD4        40       0      59      56      22      21
CQUAD4        41       0      25      30      60      61
CQUAD4        42       0      61      60      10       9
CQUAD4        43       0      30      39      62      60
CQUAD4        44       0      60      62       3      10
CQUAD4        45       0       7      12      57      63
CQUAD4        46       0      63      57      16      15
CQUAD4        47       0      39      48      64      62
CQUAD4        48       0      62      64       4       3
ENDDATA
